<svg viewBox="0 0 96 96" xmlns="http://www.w3.org/2000/svg" xmlns:xlink="http://www.w3.org/1999/xlink" id="Icons_Thought_RTL" overflow="hidden"><style>
.MsftOfcThm_Background1_Fill_v2 {
 fill:#FFFFFF; 
}
</style>
<path d="M63 79.1 64.9 79.1 64.9 81.7C64.9 81.7 64.9 81.8 64.9 81.8 64.9 84.6 67.2 86.9 70 86.9L72.1 86.9 72.1 92.1 85.9 92.1 85.9 81.1C89.2 78.6 91.1 74.7 91 70.6 91 70.2 91 69.8 91 69.4 90.7 62.2 84.5 56.6 77.3 56.9 70.1 57.2 64.5 63.4 64.8 70.6L64.8 70.8 61.8 76C60.9 77.6 61.9 79 63 79.1Z" class="MsftOfcThm_Background1_Fill_v2" stroke="none" stroke-width="1" stroke-linecap="butt" stroke-linejoin="miter" stroke-miterlimit="4" fill="#FFFFFF" fill-opacity="1"/><circle cx="60.8" cy="62.1" r="2.8" class="MsftOfcThm_Background1_Fill_v2" stroke="none" stroke-width="1" stroke-linecap="butt" stroke-linejoin="miter" stroke-miterlimit="4" fill="#FFFFFF" fill-opacity="1"/><circle cx="52.2" cy="56.7" r="4.8" class="MsftOfcThm_Background1_Fill_v2" stroke="none" stroke-width="1" stroke-linecap="butt" stroke-linejoin="miter" stroke-miterlimit="4" fill="#FFFFFF" fill-opacity="1"/><path d="M13.2 20.4C13.1 20.4 13.1 20.4 13 20.4 8 20.5 4 24.6 4 29.6 4.1 34.6 8.2 38.6 13.2 38.6 14.5 38.6 15.7 38.3 16.8 37.8L16.8 38.6C16.8 43.6 20.9 47.7 25.9 47.7 28.8 47.7 31.5 46.3 33.2 44 33.6 48.7 37.6 52.3 42.3 52.3 47.3 52.3 51.4 48.2 51.4 43.2 51.4 42.8 51.3 42.5 51.3 42.2 52.7 43.3 54.3 43.9 56 44.1 61 44.6 65.4 40.9 65.8 36L65.9 36C70.8 35.9 74.8 32 74.9 27 75 22 70.9 17.9 65.9 17.8 65.2 17.8 64.5 17.9 63.8 18.1 64 17.4 64.1 16.7 64.1 16 64.1 11 60 6.9 55 6.9 52 6.9 49.1 8.4 47.5 11 46.4 7 42.8 4.2 38.7 4.2 34.3 4.2 30.6 7.3 29.8 11.6 28.2 10.4 26.2 9.7 24.2 9.7 19.2 9.7 15.1 13.8 15.1 18.8 15.1 19.5 15.2 20.2 15.4 20.9 14.6 20.5 13.9 20.4 13.2 20.4L13.2 20.4Z" class="MsftOfcThm_Background1_Fill_v2" stroke="none" stroke-width="1" stroke-linecap="butt" stroke-linejoin="miter" stroke-miterlimit="4" fill="#FFFFFF" fill-opacity="1"/></svg>